<svg width="17" height="10" viewBox="0 0 17 10" fill="none" xmlns="http://www.w3.org/2000/svg">
<path d="M8.25926 9.80013C8.06173 9.80013 7.87012 9.76272 7.68444 9.68791C7.49877 9.6131 7.34469 9.51335 7.22222 9.38867L0.407407 2.50614C0.135802 2.23184 0 1.88272 0 1.4588C0 1.03487 0.135802 0.685759 0.407407 0.411455C0.679012 0.137151 1.02469 0 1.44444 0C1.8642 0 2.20988 0.137151 2.48148 0.411455L8.25926 6.24665L14.037 0.411455C14.3086 0.137151 14.6543 0 15.0741 0C15.4938 0 15.8395 0.137151 16.1111 0.411455C16.3827 0.685759 16.5185 1.03487 16.5185 1.4588C16.5185 1.88272 16.3827 2.23184 16.1111 2.50614L9.2963 9.38867C9.14815 9.53829 8.98765 9.64452 8.81481 9.70736C8.64197 9.7702 8.45679 9.80112 8.25926 9.80013Z" fill="#2F6DC8"/>
</svg>
