<svg width="17" height="17" viewBox="0 0 17 17" fill="none" xmlns="http://www.w3.org/2000/svg">
<path d="M1.02941 0H13.9706C14.2436 0 14.5054 0.10984 14.6985 0.305357C14.8915 0.500873 15 0.766051 15 1.04255V12.9574C15.001 13.1562 14.9455 13.3511 14.84 13.5187C14.7345 13.6863 14.5835 13.8195 14.4051 13.9024C14.269 13.9664 14.1207 13.9997 13.9706 14C13.7281 14.0001 13.4934 13.9127 13.3088 13.7535L13.3022 13.7476L10.939 11.6498C10.9125 11.6283 10.8795 11.6167 10.8456 11.617H1.02941C0.756393 11.617 0.494559 11.5072 0.301507 11.3117C0.108455 11.1161 -5.77755e-07 10.851 -5.77755e-07 10.5745V1.04255C-5.77755e-07 0.766051 0.108455 0.500873 0.301507 0.305357C0.494559 0.10984 0.756393 0 1.02941 0ZM0.882352 10.5745C0.882352 10.614 0.897845 10.6519 0.925424 10.6798C0.953002 10.7077 0.990408 10.7234 1.02941 10.7234H10.8456C11.0878 10.7237 11.3221 10.8104 11.5073 10.9684L11.514 10.9744L13.8787 13.0721C13.9002 13.0896 13.9261 13.1006 13.9535 13.1038C13.9809 13.107 14.0086 13.1024 14.0336 13.0905C14.0585 13.0785 14.0796 13.0597 14.0944 13.0362C14.1093 13.0127 14.1173 12.9854 14.1176 12.9574V1.04255C14.1176 1.00305 14.1021 0.96517 14.0746 0.937239C14.047 0.909308 14.0096 0.893617 13.9706 0.893617H1.02941C0.990408 0.893617 0.953002 0.909308 0.925424 0.937239C0.897845 0.96517 0.882352 1.00305 0.882352 1.04255V10.5745Z" fill="white"/>
<path d="M13.0625 14.1667H13.262L13.4067 14.304L15.562 16.35L15.5691 16.3565C15.6736 16.4527 15.7991 16.4998 15.9223 16.5C16.0006 16.4998 16.0793 16.4812 16.1535 16.4434L16.1567 16.4418C16.2522 16.3942 16.3391 16.3146 16.4023 16.2069C16.4656 16.099 16.5007 15.9701 16.5 15.8361H16.5V15.8333V4.16667C16.5 3.97751 16.4303 3.80337 16.3172 3.68085C16.2053 3.55967 16.0626 3.5 15.9231 3.5H4.07692C3.93741 3.5 3.79468 3.55967 3.68282 3.68085C3.56973 3.80337 3.5 3.97752 3.5 4.16667V13.5C3.5 13.6892 3.56973 13.8633 3.68282 13.9858C3.79468 14.107 3.93741 14.1667 4.07692 14.1667H13.0625Z" fill="#02175A" stroke="#F5F5F5"/>
</svg>
