<svg width="15" height="15" viewBox="0 0 15 15" fill="none" xmlns="http://www.w3.org/2000/svg">
<path fill-rule="evenodd" clip-rule="evenodd" d="M14.7157 1.65582C14.8057 1.56587 14.8772 1.45905 14.926 1.34147C14.9748 1.22389 14.9999 1.09785 15 0.970555C15.0001 0.843257 14.9751 0.717189 14.9264 0.599551C14.8778 0.481912 14.8065 0.375006 14.7165 0.284937C14.6265 0.194868 14.5197 0.1234 14.4022 0.0746123C14.2846 0.0258249 14.1585 0.000674075 14.0312 0.000595834C13.904 0.000517593 13.7779 0.0255134 13.6602 0.0741562C13.5426 0.122799 13.4357 0.194136 13.3456 0.284094L7.49988 6.12995L1.6558 0.284094C1.4739 0.102192 1.22719 -1.91666e-09 0.969943 0C0.712698 1.91666e-09 0.465989 0.102192 0.28409 0.284094C0.10219 0.465997 1.91663e-09 0.71271 0 0.969959C-1.91662e-09 1.22721 0.10219 1.47392 0.28409 1.65582L6.12985 7.5L0.28409 13.3442C0.194022 13.4342 0.122577 13.5412 0.0738324 13.6589C0.0250882 13.7765 0 13.9027 0 14.03C0 14.1574 0.0250882 14.2835 0.0738324 14.4012C0.122577 14.5189 0.194022 14.6258 0.28409 14.7159C0.465989 14.8978 0.712698 15 0.969943 15C1.09732 15 1.22345 14.9749 1.34112 14.9262C1.4588 14.8774 1.56573 14.806 1.6558 14.7159L7.49988 8.87004L13.3456 14.7159C13.5275 14.8976 13.7742 14.9996 14.0312 14.9994C14.2883 14.9992 14.5348 14.897 14.7165 14.7151C14.8982 14.5332 15.0002 14.2865 15 14.0294C14.9998 13.7724 14.8976 13.5259 14.7157 13.3442L8.8699 7.5L14.7157 1.65582Z" fill="#2F6DC8"/>
</svg>
