<svg width="32" height="32" viewBox="0 0 32 32" fill="none" xmlns="http://www.w3.org/2000/svg">
<path d="M17 21V13H13V15H15V21H12V23H20V21H17ZM16 7C15.7033 7 15.4133 7.08797 15.1666 7.2528C14.92 7.41762 14.7277 7.65189 14.6142 7.92597C14.5006 8.20006 14.4709 8.50166 14.5288 8.79264C14.5867 9.08361 14.7296 9.35088 14.9393 9.56066C15.1491 9.77044 15.4164 9.9133 15.7074 9.97118C15.9983 10.0291 16.2999 9.99935 16.574 9.88582C16.8481 9.77229 17.0824 9.58003 17.2472 9.33335C17.412 9.08668 17.5 8.79667 17.5 8.5C17.5 8.10218 17.342 7.72064 17.0607 7.43934C16.7794 7.15804 16.3978 7 16 7Z" fill="#595B5F"/>
<path d="M16 30C13.2311 30 10.5243 29.1789 8.22202 27.6406C5.91973 26.1022 4.12532 23.9157 3.06569 21.3576C2.00607 18.7994 1.72882 15.9845 2.26901 13.2687C2.80921 10.553 4.14258 8.05845 6.10051 6.10051C8.05845 4.14258 10.553 2.80921 13.2687 2.26901C15.9845 1.72882 18.7994 2.00607 21.3576 3.06569C23.9157 4.12532 26.1022 5.91973 27.6406 8.22202C29.1789 10.5243 30 13.2311 30 16C30 19.713 28.525 23.274 25.8995 25.8995C23.274 28.525 19.713 30 16 30ZM16 4.00001C13.6266 4.00001 11.3066 4.70379 9.33316 6.02237C7.35977 7.34095 5.8217 9.21509 4.91345 11.4078C4.0052 13.6005 3.76756 16.0133 4.23058 18.3411C4.69361 20.6689 5.83649 22.8071 7.51472 24.4853C9.19295 26.1635 11.3312 27.3064 13.6589 27.7694C15.9867 28.2325 18.3995 27.9948 20.5922 27.0866C22.7849 26.1783 24.6591 24.6402 25.9776 22.6668C27.2962 20.6935 28 18.3734 28 16C28 12.8174 26.7357 9.76516 24.4853 7.51472C22.2349 5.26429 19.1826 4.00001 16 4.00001Z" fill="#595B5F"/>
</svg>
