<svg width="19" height="19" viewBox="0 0 19 19" fill="none" xmlns="http://www.w3.org/2000/svg">
<path d="M0.21855 0.133951C0.307188 0.0615282 0.414871 0.0162722 0.528633 0.00363174C0.642395 -0.0090087 0.757386 0.0115055 0.859759 0.0627041L18.6711 8.96854C18.7699 9.01778 18.853 9.09359 18.9111 9.18746C18.9692 9.28133 19 9.38953 19 9.49992C19 9.61031 18.9692 9.71852 18.9111 9.81238C18.853 9.90625 18.7699 9.98206 18.6711 10.0313L0.859759 18.9371C0.757489 18.9884 0.6426 19.009 0.528906 18.9964C0.415213 18.9839 0.307555 18.9388 0.218879 18.8666C0.130202 18.7943 0.0642825 18.698 0.0290454 18.5892C-0.00619175 18.4804 -0.009246 18.3637 0.0202502 18.2532L2.35473 9.50052L0.0202502 0.74786C-0.0093878 0.637304 -0.00643845 0.520539 0.0287433 0.411621C0.063925 0.302703 0.129839 0.206277 0.21855 0.133951ZM3.4246 10.0942L1.50809 17.2854L17.0776 9.50052L1.50691 1.71563L3.4246 8.90679H11.2806C11.4381 8.90679 11.5891 8.96935 11.7004 9.08069C11.8118 9.19203 11.8743 9.34305 11.8743 9.50052C11.8743 9.65798 11.8118 9.809 11.7004 9.92034C11.5891 10.0317 11.4381 10.0942 11.2806 10.0942H3.4246Z" fill="#2F6DC8"/>
</svg>
