<svg width="32" height="32" viewBox="0 0 32 32" fill="none" xmlns="http://www.w3.org/2000/svg">
<path d="M32 16C32 24.8366 24.8366 32 16 32C7.16344 32 0 24.8366 0 16C0 7.16344 7.16344 0 16 0C24.8366 0 32 7.16344 32 16ZM2.46654 16C2.46654 23.4743 8.52568 29.5335 16 29.5335C23.4743 29.5335 29.5335 23.4743 29.5335 16C29.5335 8.52568 23.4743 2.46654 16 2.46654C8.52568 2.46654 2.46654 8.52568 2.46654 16Z" fill="#D9D9D9"/>
<path d="M13.1212 0.261117C15.5182 -0.177322 17.9837 -0.0624682 20.3296 0.596916C22.6754 1.2563 24.8397 2.44279 26.6572 4.06588C28.4748 5.68896 29.8976 7.70574 30.8171 9.96237C31.7366 12.219 32.1286 14.6558 31.963 17.087L29.5022 16.9194C29.6422 14.8631 29.3107 12.8019 28.5329 10.8931C27.7552 8.98438 26.5517 7.27849 25.0143 5.90563C23.477 4.53276 21.6463 3.52917 19.6621 2.97144C17.6779 2.4137 15.5925 2.31655 13.565 2.6874L13.1212 0.261117Z" fill="#006FCF"/>
</svg>
